<svg id="Capa_1" enable-background="new 0 0 512 512" height="512" viewBox="0 0 512 512" width="512" xmlns="http://www.w3.org/2000/svg"><g><path style="fill:#ffffff;" d="m223.439 468.543c-6.347-5.324-15.808-4.496-21.132 1.852-1.046 1.248-2.175 2.414-3.354 3.463-6.046 5.385-13.769 8.115-22.954 8.115-24.813 0-45-20.187-45-45s20.187-45 45-45c9.02 0 17.716 2.654 25.149 7.676 6.864 4.64 16.188 2.833 20.827-4.031 4.638-6.864 2.833-16.188-4.032-20.826-12.411-8.386-26.915-12.818-41.944-12.818-41.355 0-75 33.645-75 75s33.645 75 75 75c16.528 0 31.364-5.433 42.908-15.714 2.26-2.014 4.408-4.229 6.383-6.583 5.325-6.349 4.496-15.81-1.851-21.134z"/><path style="fill:#ffffff;" d="m495.812 481.702c-10.642.134-21.886.227-31.618.259 6.366-8.562 14.877-20.257 26.014-36.168 7.644-10.923 12.635-21.273 14.835-30.764.114-.49.203-.986.267-1.485l.582-4.553c.081-.631.121-1.267.121-1.902 0-24.877-20.239-45.116-45.117-45.116-21.511 0-40.129 15.304-44.27 36.389-1.597 8.129 3.699 16.014 11.828 17.609 8.127 1.594 16.013-3.698 17.609-11.828 1.385-7.052 7.623-12.17 14.832-12.17 8.069 0 14.683 6.354 15.097 14.322l-.334 2.615c-1.423 5.536-4.879 12.322-10.029 19.682-18.623 26.609-29.734 41.158-35.704 48.974-7.495 9.813-11.257 14.739-8.731 22.951 1.496 4.863 5.173 8.592 10.088 10.23 1.977.658 3.759 1.253 26.945 1.253 9.004 0 21.237-.09 37.963-.3 8.283-.104 14.914-6.904 14.811-15.188-.105-8.283-6.901-14.932-15.189-14.81z"/><path style="fill:#ffffff;" d="m323.8 361.973c-41.355 0-75 33.645-75 75s33.645 75 75 75 75-33.645 75-75-33.645-75-75-75zm0 120c-24.813 0-45-20.187-45-45s20.187-45 45-45 45 20.187 45 45-20.187 45-45 45z"/><path style="fill:#ffffff;" d="m177 330h250c46.869 0 85-38.131 85-85 0-38.235-25.063-70.837-60.414-81.405.275-2.882.414-5.751.414-8.595 0-52.383-42.617-95-95-95-4.502 0-8.95.329-13.324.949-13.894-36.059-49.066-60.949-88.676-60.949-31.574 0-60.654 15.666-78.176 41.062-12.684-7.208-27.059-11.062-41.824-11.062-46.869 0-85 38.131-85 85 0 3.053.164 6.098.491 9.123-29.661 10.213-50.491 38.328-50.491 70.877 0 41.355 33.645 75 75 75h28.509c6.969 34.192 37.272 60 73.491 60zm180-240c35.841 0 65 29.159 65 65 0 5.376-.749 10.948-2.227 16.562-.012.046-.014.052-.013.044-2.856 10.572-8.514 21.07-16.799 29.355-5.858 5.857-5.858 15.355 0 21.213 2.929 2.929 6.768 4.394 10.606 4.394s7.678-1.465 10.606-4.394c8.727-8.727 15.377-18.748 19.985-29.448 22.209 7.218 37.842 27.982 37.842 52.274 0 30.327-24.673 55-55 55h-250c-24.813 0-45-20.187-45-45 0-19.025 11.866-35.516 28.929-42.013 4.039 8.079 9.393 15.543 15.967 22.116 2.929 2.929 6.768 4.394 10.606 4.394s7.678-1.465 10.607-4.394c5.857-5.857 5.857-15.355 0-21.213-6.473-6.473-11.122-14.314-13.712-22.831-1.59-5.215-2.397-10.619-2.397-16.059 0-30.327 24.673-55 55-55 10.269 0 20.253 2.903 28.906 8.29-4.748 16.202-5.227 33.647-.906 50.447 2.063 8.023 10.242 12.856 18.263 10.791 8.023-2.063 12.855-10.24 10.792-18.264-3.646-14.179-2.266-29.183 3.401-42.276 10.366-23.684 33.739-38.988 59.544-38.988zm-282 150c-24.813 0-45-20.187-45-45 0-22.843 17.098-42.045 39.771-44.665 4.421-.511 8.387-2.958 10.826-6.682 2.438-3.723 3.098-8.336 1.8-12.594-1.59-5.215-2.397-10.619-2.397-16.059 0-30.327 24.673-55 55-55 13.518 0 26.547 5.019 36.689 14.131 3.582 3.219 8.492 4.521 13.198 3.503 4.707-1.019 8.638-4.235 10.569-8.646 10.366-23.684 33.739-38.988 59.544-38.988 26.424 0 49.958 16.18 59.928 39.842-14.369 7.11-26.85 17.807-36.104 31.221-12.684-7.209-27.059-11.063-41.824-11.063-46.869 0-85 38.131-85 85 0 3.053.164 6.098.491 9.124-24.988 8.603-43.706 29.914-48.984 55.876z"/></g></svg>