<?xml version="1.0" encoding="iso-8859-1"?>
<!-- Generator: Adobe Illustrator 19.0.0, SVG Export Plug-In . SVG Version: 6.00 Build 0)  -->
<svg version="1.1" id="Capa_1" xmlns="http://www.w3.org/2000/svg" xmlns:xlink="http://www.w3.org/1999/xlink" x="0px" y="0px"
	 viewBox="0 0 448 448" style="enable-background:new 0 0 448 448;" xml:space="preserve">
<g>
	<g>
		<path style="fill:#ffffff;" d="M391.592,264C387.376,175.088,313.936,104,224,104S60.624,175.088,56.408,264H0v16h56h336h56v-16H391.592z M120.408,264
			c4.104-53.608,48.944-96,103.592-96v-16c-63.464,0-115.448,49.56-119.592,112h-32.2C76.384,183.896,142.872,120,224,120
			s147.616,63.896,151.792,144H120.408z"/>
	</g>
</g>
<g>
	<g>
		<rect style="fill:#ffffff;" x="64" y="296" width="256" height="16"/>
	</g>
</g>
<g>
	<g>
		<rect style="fill:#ffffff;" x="160" y="328" width="224" height="16"/>
	</g>
</g>
<g>
	<g>
		<rect style="fill:#ffffff;" x="144" y="360" width="144" height="16"/>
	</g>
</g>
<g>
	<g>
		<polygon style="fill:#ffffff;" points="376,88 376,72 336,72 336,88 360,88 360,104 376,104 376,128 392,128 392,88 		"/>
	</g>
</g>
<g>
</g>
<g>
</g>
<g>
</g>
<g>
</g>
<g>
</g>
<g>
</g>
<g>
</g>
<g>
</g>
<g>
</g>
<g>
</g>
<g>
</g>
<g>
</g>
<g>
</g>
<g>
</g>
<g>
</g>
</svg>
