<svg id="Layer_1" enable-background="new 0 0 512 512" height="512" viewBox="0 0 512 512" width="512" xmlns="http://www.w3.org/2000/svg"><path fill='#ffffff' d="m443.602 320.839c-5.348-18.449-15.504-35.347-29.254-48.839h17.652c44.112 0 80-35.888 80-80 0-39.795-29.603-73.503-68.398-79.161-25.156-86.786-137.928-109.62-194.825-39.075-15.078-3.215-31.334-2.119-46.48 3.959-21.086-28.754-54.348-45.723-90.297-45.723-61.757 0-112 50.243-112 112 0 46.707 28.926 88.041 71.684 104.502-8.436 11.391-13.934 25.082-15.331 39.952-31.699 3.791-56.353 30.843-56.353 63.546 0 35.29 28.71 64 64 64h32c0 35.29 28.71 64 64 64h88c4.418 0 8-3.582 8-8s-3.582-8-8-8h-88c-26.467 0-48-21.533-48-48s21.533-48 48-48c4.418 0 8-3.582 8-8 0-35.29 28.71-64 64-64s64 28.71 64 64c0 4.418 3.582 8 8 8s8-3.582 8-8c0-32.284-19.233-60.143-46.834-72.772 52.547-57.326 146.942-31.366 164.305 42.786.798 3.41 3.721 5.904 7.214 6.156 33.26 2.397 59.315 30.434 59.315 63.83 0 35.29-28.71 64-64 64h-136c-4.418 0-8 3.582-8 8s3.582 8 8 8h136c44.112 0 80-35.888 80-80 0-39.795-29.603-73.503-68.398-79.161zm-193.891-230.36c27.254 7.831 46.289 33.129 46.289 61.521 0 4.418 3.582 8 8 8s8-3.582 8-8c0-31.506-18.766-59.951-46.817-72.791 52.833-57.61 147.007-30.998 164.288 42.805.798 3.41 3.721 5.904 7.214 6.156 33.26 2.397 59.315 30.435 59.315 63.83 0 35.29-28.71 64-64 64h-38.34c-15.821-9.485-33.881-14.986-52.397-15.865-35.446-75.097-136.896-86.359-188.497-22.375-12.59-2.684-26.232-2.39-39.427 1.514-7.306-30.337 15.81-59.274 46.661-59.274 4.418 0 8-3.582 8-8 0-42.629 40.99-73.227 81.711-61.521zm-233.711 53.521c0-52.935 43.065-96 96-96 30.003 0 57.817 13.795 75.947 37.274-19.661 13.024-33.273 34.479-35.595 59.18-38.568 4.611-64.712 42.833-53.934 80.958-5.361 2.867-10.357 6.322-14.905 10.287-39.96-12.373-67.513-49.484-67.513-91.699zm232.764 137.781c-47.186-10.104-91.983 23.553-96.411 70.673-26.343 3.149-47.806 22.372-54.311 47.546h-34.042c-26.468 0-48-21.532-48-48s21.532-48 48-48c4.418 0 8-3.582 8-8 0-42.631 40.996-73.229 81.709-61.521 3.227.924 6.696-.261 8.677-2.977 40.981-56.249 126.826-51.644 161.175 9.207-29.204 3.293-56.244 18.059-74.797 41.072z"/><circle fill='#ffffff' cx="272" cy="472" r="8"/><path fill='#ffffff' d="m112 80c4.418 0 8-3.582 8-8s-3.582-8-8-8c-44.112 0-80 35.888-80 80 0 4.418 3.582 8 8 8s8-3.582 8-8c0-35.29 28.71-64 64-64z"/></svg>