<?xml version="1.0" encoding="iso-8859-1"?>
<!-- Generator: Adobe Illustrator 19.0.0, SVG Export Plug-In . SVG Version: 6.00 Build 0)  -->
<svg version="1.1" id="Capa_1" xmlns="http://www.w3.org/2000/svg" xmlns:xlink="http://www.w3.org/1999/xlink" x="0px" y="0px"
	 viewBox="0 0 464 464" style="enable-background:new 0 0 464 464;" xml:space="preserve">
<g>
	<g>
  <!-- style="fill:#ffffff;" -->
		<rect fill='#ffffff' x="160" y="336" width="96" height="16"/>
	</g>
</g>
<g>
	<g>
		<rect fill='#ffffff' x="272" y="336" width="16" height="16"/>
	</g>
</g>
<g>
	<g>
		<path fill='#ffffff' d="M368,160c-5.344,0-10.616,0.44-15.744,1.304C332.488,103.656,277.504,64,216,64c-73.832,0-135.352,55.8-143.152,128.32
			C32.072,195.944,0,230.296,0,272c0,44.112,35.888,80,80,80h32v48h224c31.304,0,58.016-23.072,63.04-53.24
			C437.528,333.656,464,297.128,464,256C464,203.064,420.936,160,368,160z M383.792,339.984l-0.016,0.16
			C381.752,364.736,360.784,384,336,384H128v-32v-57.024c0.584-47.96,40.064-86.976,88-86.976c30.128,0,57.872,15.192,74.216,40.624
			c7.264,11.384,11.848,24.488,13.272,37.904L304.704,298l10.32-5.16C321.44,289.624,328.496,288,336,288c26.472,0,48,21.528,48,48
			C384,337.288,383.936,338.576,383.792,339.984z M399.672,329.472c-0.024-0.2-0.064-0.392-0.088-0.592
			c-0.208-1.88-0.48-3.736-0.848-5.56c-0.144-0.704-0.352-1.392-0.52-2.088c-0.312-1.304-0.608-2.6-1-3.872
			c-0.24-0.784-0.536-1.536-0.8-2.296c-0.4-1.152-0.792-2.304-1.256-3.424c-0.328-0.792-0.704-1.544-1.056-2.32
			c-0.488-1.056-0.968-2.112-1.512-3.136c-0.408-0.768-0.856-1.512-1.296-2.264c-0.568-0.976-1.144-1.952-1.768-2.904
			c-0.48-0.736-0.992-1.44-1.504-2.152c-0.656-0.912-1.312-1.816-2.016-2.696c-0.552-0.688-1.12-1.352-1.696-2.016
			c-0.728-0.84-1.472-1.664-2.248-2.472c-0.616-0.64-1.24-1.256-1.88-1.864c-0.8-0.768-1.624-1.512-2.464-2.24
			c-0.672-0.576-1.344-1.144-2.04-1.696c-0.872-0.688-1.76-1.352-2.672-2c-0.72-0.512-1.44-1.024-2.184-1.504
			c-0.936-0.608-1.896-1.184-2.864-1.744c-0.768-0.44-1.52-0.888-2.304-1.304c-1.008-0.528-2.04-1.008-3.08-1.488
			c-0.792-0.368-1.576-0.744-2.392-1.072c-1.08-0.44-2.192-0.824-3.296-1.208c-0.808-0.28-1.608-0.584-2.432-0.832
			c-1.176-0.352-2.384-0.64-3.584-0.928c-0.792-0.192-1.568-0.416-2.376-0.576c-1.344-0.264-2.72-0.448-4.088-0.624
			c-0.696-0.088-1.376-0.232-2.08-0.296c-2.08-0.192-4.192-0.304-6.328-0.304c-6.312,0-12.4,0.872-18.216,2.6
			c-2.568-12.248-7.352-24.048-14.096-34.608c-19.32-30.056-52.096-48-87.688-48c-56.656,0-103.312,46.112-104,102.88V336H80
			c-35.288,0-64-28.712-64-64c0-35.288,28.712-64,64.24-64h7.552l0.432-7.544C92.088,132.912,148.216,80,216,80
			c56.896,0,107.52,38.176,123.112,92.832l2.144,7.504l7.56-1.96C354.92,176.8,361.376,176,368,176c44.112,0,80,35.888,80,80
			C448,288.184,428.584,317.032,399.672,329.472z"/>
	</g>
</g>
<g>
	<g>
		<path fill="#ffffff" d="M216,104v16c48.52,0,88,39.48,88,88h16C320,150.656,273.344,104,216,104z"/>
	</g>
</g>
<g>
</g>
<g>
</g>
<g>
</g>
<g>
</g>
<g>
</g>
<g>
</g>
<g>
</g>
<g>
</g>
<g>
</g>
<g>
</g>
<g>
</g>
<g>
</g>
<g>
</g>
<g>
</g>
<g>
</g>
</svg>
