<?xml version="1.0" encoding="iso-8859-1"?>
<!-- Generator: Adobe Illustrator 19.0.0, SVG Export Plug-In . SVG Version: 6.00 Build 0)  -->
<svg version="1.1" id="Capa_1" xmlns="http://www.w3.org/2000/svg" xmlns:xlink="http://www.w3.org/1999/xlink" x="0px" y="0px"
	 viewBox="0 0 464 464" style="enable-background:new 0 0 464 464;" xml:space="preserve">
<g>
	<g>
		<rect style="fill:#ffffff;" x="216" y="368" width="224" height="16"/>
	</g>
</g>
<g>
	<g>
		<rect style="fill:#ffffff;" x="56" y="368" width="128" height="16"/>
	</g>
</g>
<g>
	<g>
		<rect style="fill:#ffffff;" x="168" y="336" width="224" height="16"/>
	</g>
</g>
<g>
	<g>
		<rect style="fill:#ffffff;" x="104" y="336" width="32" height="16"/>
	</g>
</g>
<g>
	<g>
		<rect style="fill:#ffffff;" x="8" y="304" width="128" height="16"/>
	</g>
</g>
<g>
	<g>
		<path style="fill:#ffffff;" d="M400,192c-6.312,0-12.408,0.872-18.216,2.6c-2.56-12.24-7.352-24.04-14.096-34.608C348.384,129.944,315.6,112,280,112
			c-6.544,0-13,0.76-19.344,1.944C240.952,92.392,213.344,80,184,80c-35.6,0-68.384,17.944-87.704,48.016
			C89.56,138.56,84.784,150.36,82.216,162.6C76.408,160.872,70.312,160,64,160c-35.288,0-64,28.712-64,64c0,35.288,28.712,64,64,64
			h8h104v32h224c35.288,0,64-28.712,64-64C464,220.712,435.288,192,400,192z M188.344,166.96c-0.744,1.392-1.464,2.8-2.144,4.224
			c-0.496,1.04-0.968,2.088-1.432,3.144c-0.64,1.456-1.24,2.936-1.808,4.424c-0.408,1.072-0.816,2.144-1.184,3.224
			c-0.528,1.536-1.008,3.096-1.472,4.656c-0.32,1.08-0.64,2.152-0.928,3.248c-0.424,1.648-0.784,3.32-1.128,5
			c-0.216,1.048-0.456,2.08-0.64,3.136c-0.328,1.872-0.568,3.768-0.792,5.672c-0.104,0.888-0.256,1.76-0.336,2.656
			c-0.264,2.816-0.432,5.648-0.464,8.512V240H64v16h112v16H72h-8c-26.472,0-48-21.528-48-48s21.528-48,48-48
			c7.504,0,14.568,1.624,20.984,4.832l10.328,5.16l1.2-11.48c1.416-13.4,6-26.504,13.248-37.872C126.128,111.192,153.872,96,184,96
			c22.024,0,42.952,8.168,59.032,22.736c-0.728,0.272-1.416,0.616-2.128,0.904c-1.104,0.448-2.192,0.904-3.272,1.384
			c-1.472,0.656-2.912,1.352-4.344,2.072c-1.04,0.52-2.08,1.048-3.104,1.6c-1.432,0.776-2.816,1.608-4.2,2.456
			c-0.96,0.584-1.92,1.144-2.856,1.76c-1.432,0.936-2.808,1.928-4.184,2.928c-0.824,0.6-1.672,1.168-2.472,1.792
			c-1.584,1.224-3.104,2.52-4.616,3.832c-0.536,0.464-1.096,0.896-1.624,1.368c-2,1.808-3.92,3.696-5.768,5.648
			c-0.488,0.512-0.928,1.064-1.4,1.584c-1.344,1.48-2.664,2.968-3.92,4.52c-0.632,0.784-1.216,1.6-1.824,2.4
			c-1.024,1.352-2.048,2.696-3.008,4.096c-0.624,0.912-1.208,1.848-1.8,2.776c-0.864,1.352-1.72,2.704-2.52,4.096
			C189.424,164.944,188.888,165.952,188.344,166.96z M400,304H192v-16h144v-16H192v-16h112v-16H192v-25.016
			c0.096-7.584,1.152-14.976,3.064-22.032c8.28-30.584,32.624-54.992,64.56-62.608C266.216,128.792,273.072,128,280,128
			c30.128,0,57.872,15.192,74.216,40.624c7.264,11.392,11.848,24.496,13.264,37.896l1.208,11.48l10.32-5.16
			c6.424-3.216,13.488-4.84,20.992-4.84c26.472,0,48,21.528,48,48C448,282.472,426.472,304,400,304z"/>
	</g>
</g>
<g>
</g>
<g>
</g>
<g>
</g>
<g>
</g>
<g>
</g>
<g>
</g>
<g>
</g>
<g>
</g>
<g>
</g>
<g>
</g>
<g>
</g>
<g>
</g>
<g>
</g>
<g>
</g>
<g>
</g>
</svg>
