<svg id="Capa_1" enable-background="new 0 0 512 512" height="512" viewBox="0 0 512 512" width="512" xmlns="http://www.w3.org/2000/svg"><g><path style="fill:#ffffff;" d="m452 181c0-41.355-33.645-75-75-75s-75 33.645-75 75c0 8.284 6.716 15 15 15s15-6.716 15-15c0-24.813 20.187-45 45-45s45 20.187 45 45-20.187 45-45 45h-362c-8.284 0-15 6.716-15 15s6.716 15 15 15h362c41.355 0 75-33.645 75-75z"/><path style="fill:#ffffff;" d="m452 286h-197c-8.284 0-15 6.716-15 15s6.716 15 15 15h197c16.542 0 30 13.458 30 30s-13.458 30-30 30c-12.697 0-24.069-8.037-28.297-19.999-2.761-7.811-11.331-11.905-19.142-9.144s-11.904 11.331-9.144 19.141c8.458 23.927 31.196 40.002 56.583 40.002 33.084 0 60-26.916 60-60s-26.916-60-60-60z"/><path style="fill:#ffffff;" d="m317 346h-152c-8.284 0-15 6.716-15 15s6.716 15 15 15h152c8.284 0 15-6.716 15-15s-6.716-15-15-15z"/><path style="fill:#ffffff;" d="m75 196h150c8.284 0 15-6.716 15-15s-6.716-15-15-15h-150c-8.284 0-15 6.716-15 15s6.716 15 15 15z"/><path style="fill:#ffffff;" d="m210 301c0-8.284-6.716-15-15-15h-150c-8.284 0-15 6.716-15 15s6.716 15 15 15h150c8.284 0 15-6.716 15-15z"/><circle style="fill:#ffffff;" cx="105" cy="361" r="15"/><circle style="fill:#ffffff;" cx="15" cy="181" r="15"/><circle style="fill:#ffffff;" cx="377" cy="181" r="15"/><circle style="fill:#ffffff;" cx="467" cy="241" r="15"/><circle style="fill:#ffffff;" cx="497" cy="121" r="15"/><circle style="fill:#ffffff;" cx="437" cy="61" r="15"/><circle style="fill:#ffffff;" cx="255" cy="121" r="15"/><circle style="fill:#ffffff;" cx="316" cy="421" r="15"/><circle style="fill:#ffffff;" cx="406" cy="451" r="15"/></g></svg>