<?xml version="1.0" encoding="iso-8859-1"?>
<!-- Generator: Adobe Illustrator 19.0.0, SVG Export Plug-In . SVG Version: 6.00 Build 0)  -->
<svg version="1.1" id="Capa_1" xmlns="http://www.w3.org/2000/svg" xmlns:xlink="http://www.w3.org/1999/xlink" x="0px" y="0px"
	 viewBox="0 0 448 448" style="enable-background:new 0 0 448 448;" xml:space="preserve">
<g>
	<g>
		<path style="fill:#ffffff;" d="M419.312,265.654L368,214.342v-84.688h-84.688L224,70.342l-59.312,59.312H80v84.688l-51.312,51.312H0v16h12.688H112h224
			h99.312H448v-16H419.312z M128.336,265.654c4.072-49.2,45.424-88,95.664-88s91.592,38.8,95.664,88H128.336z M335.592,265.654
			c-4.128-58.024-52.536-104-111.592-104c-59.056,0-107.464,45.976-111.592,104H51.312L96,220.966v-75.312h75.312L224,92.966
			l52.688,52.688H352v75.312l44.688,44.688H335.592z"/>
	</g>
</g>
<g>
	<g>
		<rect style="fill:#ffffff;" x="64" y="297.658" width="256" height="16"/>
	</g>
</g>
<g>
	<g>
		<rect style="fill:#ffffff;" x="160" y="329.658" width="224" height="16"/>
	</g>
</g>
<g>
	<g>
		<rect style="fill:#ffffff;" x="144" y="361.658" width="144" height="16"/>
	</g>
</g>
<g>
</g>
<g>
</g>
<g>
</g>
<g>
</g>
<g>
</g>
<g>
</g>
<g>
</g>
<g>
</g>
<g>
</g>
<g>
</g>
<g>
</g>
<g>
</g>
<g>
</g>
<g>
</g>
<g>
</g>
</svg>
