<?xml version="1.0" encoding="iso-8859-1"?>
<!-- Generator: Adobe Illustrator 19.0.0, SVG Export Plug-In . SVG Version: 6.00 Build 0)  -->
<svg version="1.1" id="Capa_1" xmlns="http://www.w3.org/2000/svg" xmlns:xlink="http://www.w3.org/1999/xlink" x="0px" y="0px"
	 viewBox="0 0 464 464" style="enable-background:new 0 0 464 464;" xml:space="preserve">
<g>
	<g>
		<path style="fill:#ffffff;" d="M384,126.576l-80-6l-80-6l-80-6V76h-40h-8h-3.888L16,172.872V44H0v149.232v21.528V428h16V235.128L92.112,332H96h8h40
			v-32.576l80-6v0.008l80-6l80-6l80-6V132.576L384,126.576z M96,311.048L16,209.232V198.76L96,96.944V311.048z M128,107.376v193.24
			V316h-16V92h16V107.376z M224,277.384l-80,5.992V124.624l80,6V277.384z M288,272.584l-48,3.6v-144.36l34.288,2.568L288,135.424
			V272.584z M384,265.384l-80,5.992V136.624l80,6V265.384z M448,260.584l-48,3.592V143.824l48,3.6V260.584z"/>
	</g>
</g>
<g>
	<g>
		<path style="fill:#ffffff;" d="M400,340c-17.648,0-32,14.352-32,32h16c0-8.824,7.176-16,16-16c8.824,0,16,7.176,16,16c0,8.824-7.176,16-16,16H232v16h168
			c17.648,0,32-14.352,32-32S417.648,340,400,340z"/>
	</g>
</g>
<g>
	<g>
		<path style="fill:#ffffff;" d="M248,324c-13.232,0-24,10.768-24,24h16c0-4.408,3.592-8,8-8s8,3.592,8,8c0,4.408-3.592,8-8,8h-80v16h80
			c13.232,0,24-10.768,24-24S261.232,324,248,324z"/>
	</g>
</g>
<g>
	<g>
		<path style="fill:#ffffff;" d="M360,36c-13.232,0-24,10.768-24,24h16c0-4.408,3.592-8,8-8c4.408,0,8,3.592,8,8s-3.592,8-8,8h-64v16h64
			c13.232,0,24-10.768,24-24S373.232,36,360,36z"/>
	</g>
</g>
<g>
</g>
<g>
</g>
<g>
</g>
<g>
</g>
<g>
</g>
<g>
</g>
<g>
</g>
<g>
</g>
<g>
</g>
<g>
</g>
<g>
</g>
<g>
</g>
<g>
</g>
<g>
</g>
<g>
</g>
</svg>
